<mxfile host="app.diagrams.net" modified="2021-11-06T11:35:35.097Z" agent="5.0 (Macintosh; Intel Mac OS X 10_15_7) AppleWebKit/537.36 (KHTML, like Gecko) Chrome/89.0.4389.90 Safari/537.36" etag="zcXh5isx4B9_DYWXA9KW" version="15.7.0" type="github">
  <diagram id="sKfvowjH7r7cZfsO4v4y" name="Page-1">
    <mxGraphModel dx="3709" dy="2246" grid="0" gridSize="10" guides="1" tooltips="1" connect="1" arrows="1" fold="1" page="1" pageScale="1" pageWidth="850" pageHeight="1100" math="0" shadow="0">
      <root>
        <mxCell id="0" />
        <mxCell id="1" parent="0" />
        <mxCell id="JAqNoWkvVQZvWXrGdv4A-1" value="" style="rounded=1;whiteSpace=wrap;html=1;dashed=1;" vertex="1" parent="1">
          <mxGeometry x="1670" y="880" width="300" height="550" as="geometry" />
        </mxCell>
        <mxCell id="JAqNoWkvVQZvWXrGdv4A-2" value="" style="rounded=1;whiteSpace=wrap;html=1;dashed=1;" vertex="1" parent="1">
          <mxGeometry x="1250" y="880" width="400" height="400" as="geometry" />
        </mxCell>
        <mxCell id="JAqNoWkvVQZvWXrGdv4A-3" value="" style="rounded=1;whiteSpace=wrap;html=1;dashed=1;" vertex="1" parent="1">
          <mxGeometry x="550" y="1120" width="780" height="460" as="geometry" />
        </mxCell>
        <mxCell id="JAqNoWkvVQZvWXrGdv4A-4" value="" style="rounded=1;whiteSpace=wrap;html=1;dashed=1;" vertex="1" parent="1">
          <mxGeometry x="110" y="870" width="420" height="580" as="geometry" />
        </mxCell>
        <mxCell id="JAqNoWkvVQZvWXrGdv4A-5" value="圈人下游&lt;br /&gt;直播服务、数据中台、数仓等" style="rounded=1;whiteSpace=wrap;html=1;fontColor=#000000;labelBackgroundColor=#FFFFFF;" vertex="1" parent="1">
          <mxGeometry x="1735" y="1360" width="160" height="50" as="geometry" />
        </mxCell>
        <mxCell id="JAqNoWkvVQZvWXrGdv4A-6" value="&lt;div&gt;&lt;span style=&quot;font-size: 12px;&quot;&gt;资源下游&lt;/span&gt;&lt;/div&gt;&lt;div&gt;&lt;span style=&quot;font-size: 12px;&quot;&gt;直播/主端/商业化资源等&lt;/span&gt;&lt;/div&gt;" style="rounded=1;whiteSpace=wrap;html=1;" vertex="1" parent="1">
          <mxGeometry x="550" y="1360" width="160" height="50" as="geometry" />
        </mxCell>
        <mxCell id="JAqNoWkvVQZvWXrGdv4A-7" style="edgeStyle=orthogonalEdgeStyle;rounded=0;orthogonalLoop=1;jettySize=auto;html=1;exitX=0.5;exitY=1;exitDx=0;exitDy=0;entryX=0.5;entryY=0;entryDx=0;entryDy=0;" edge="1" parent="1" source="JAqNoWkvVQZvWXrGdv4A-8" target="JAqNoWkvVQZvWXrGdv4A-76">
          <mxGeometry relative="1" as="geometry" />
        </mxCell>
        <mxCell id="JAqNoWkvVQZvWXrGdv4A-8" value="资源位外部业务上游&lt;br /&gt;FeedAPI、推荐、营收榜单等等" style="rounded=1;whiteSpace=wrap;html=1;fillColor=none;" vertex="1" parent="1">
          <mxGeometry x="1465" y="910" width="120" height="60" as="geometry" />
        </mxCell>
        <mxCell id="JAqNoWkvVQZvWXrGdv4A-9" style="edgeStyle=orthogonalEdgeStyle;rounded=0;orthogonalLoop=1;jettySize=auto;html=1;exitX=0.5;exitY=1;exitDx=0;exitDy=0;" edge="1" parent="1" source="JAqNoWkvVQZvWXrGdv4A-11" target="JAqNoWkvVQZvWXrGdv4A-12">
          <mxGeometry relative="1" as="geometry" />
        </mxCell>
        <mxCell id="JAqNoWkvVQZvWXrGdv4A-10" style="edgeStyle=orthogonalEdgeStyle;rounded=0;orthogonalLoop=1;jettySize=auto;html=1;exitX=0.5;exitY=1;exitDx=0;exitDy=0;" edge="1" parent="1" source="JAqNoWkvVQZvWXrGdv4A-11" target="JAqNoWkvVQZvWXrGdv4A-76">
          <mxGeometry relative="1" as="geometry" />
        </mxCell>
        <mxCell id="JAqNoWkvVQZvWXrGdv4A-11" value="BannerAPI&lt;br&gt;webcast.banner.api" style="rounded=1;whiteSpace=wrap;html=1;fillColor=#487EC0;fontColor=#FFFFFF;" vertex="1" parent="1">
          <mxGeometry x="1327.5" y="910" width="115" height="60" as="geometry" />
        </mxCell>
        <mxCell id="JAqNoWkvVQZvWXrGdv4A-12" value="Banner核心服务(旧)&lt;br&gt;webcast.banner.base" style="rounded=1;whiteSpace=wrap;html=1;fillColor=#487EC0;strokeWidth=2;fontColor=#FFFFFF;" vertex="1" parent="1">
          <mxGeometry x="1320" y="1150" width="130" height="50" as="geometry" />
        </mxCell>
        <mxCell id="JAqNoWkvVQZvWXrGdv4A-13" style="edgeStyle=orthogonalEdgeStyle;rounded=0;orthogonalLoop=1;jettySize=auto;html=1;exitX=0.5;exitY=1;exitDx=0;exitDy=0;" edge="1" parent="1" source="JAqNoWkvVQZvWXrGdv4A-14" target="JAqNoWkvVQZvWXrGdv4A-37">
          <mxGeometry relative="1" as="geometry" />
        </mxCell>
        <mxCell id="JAqNoWkvVQZvWXrGdv4A-14" value="圈人上游&lt;br /&gt;Banner、活动等" style="rounded=1;whiteSpace=wrap;html=1;" vertex="1" parent="1">
          <mxGeometry x="1680" y="910" width="115" height="60" as="geometry" />
        </mxCell>
        <mxCell id="JAqNoWkvVQZvWXrGdv4A-15" style="edgeStyle=orthogonalEdgeStyle;rounded=0;orthogonalLoop=1;jettySize=auto;html=1;exitX=0.5;exitY=1;exitDx=0;exitDy=0;entryX=0.5;entryY=0;entryDx=0;entryDy=0;" edge="1" parent="1" source="JAqNoWkvVQZvWXrGdv4A-16" target="JAqNoWkvVQZvWXrGdv4A-37">
          <mxGeometry relative="1" as="geometry" />
        </mxCell>
        <mxCell id="JAqNoWkvVQZvWXrGdv4A-16" value="圈人预热&lt;br&gt;webcast.crowd.consumer" style="rounded=1;whiteSpace=wrap;html=1;fillColor=#487EC0;fontColor=#FFFFFF;" vertex="1" parent="1">
          <mxGeometry x="1810" y="910" width="145" height="60" as="geometry" />
        </mxCell>
        <mxCell id="JAqNoWkvVQZvWXrGdv4A-17" style="edgeStyle=orthogonalEdgeStyle;rounded=0;orthogonalLoop=1;jettySize=auto;html=1;exitX=0.5;exitY=1;exitDx=0;exitDy=0;entryX=0.5;entryY=0;entryDx=0;entryDy=0;" edge="1" parent="1" source="JAqNoWkvVQZvWXrGdv4A-18" target="JAqNoWkvVQZvWXrGdv4A-29">
          <mxGeometry relative="1" as="geometry" />
        </mxCell>
        <mxCell id="JAqNoWkvVQZvWXrGdv4A-18" value="&lt;div style=&quot;text-align: left;&quot;&gt;道具业务&lt;/div&gt;&lt;div style=&quot;text-align: left;&quot;&gt;礼物道具、人气卡、座驾&lt;/div&gt;&lt;div style=&quot;text-align: left;&quot;&gt;webcast.profit.api&lt;br /&gt;webcast.profit.freecell&lt;/div&gt;" style="rounded=1;whiteSpace=wrap;html=1;" vertex="1" parent="1">
          <mxGeometry x="550" y="910" width="150" height="60" as="geometry" />
        </mxCell>
        <mxCell id="JAqNoWkvVQZvWXrGdv4A-19" style="edgeStyle=orthogonalEdgeStyle;rounded=0;orthogonalLoop=1;jettySize=auto;html=1;exitX=0.5;exitY=1;exitDx=0;exitDy=0;" edge="1" parent="1" source="JAqNoWkvVQZvWXrGdv4A-20" target="JAqNoWkvVQZvWXrGdv4A-29">
          <mxGeometry relative="1" as="geometry" />
        </mxCell>
        <mxCell id="JAqNoWkvVQZvWXrGdv4A-20" value="&lt;div style=&quot;text-align: left;&quot;&gt;虚拟币业务（游戏积分等）&lt;/div&gt;&lt;div style=&quot;text-align: left;&quot;&gt;&lt;span style=&quot;font-family: -apple-system, system-ui, &amp;quot;Segoe UI&amp;quot;, &amp;quot;PingFang SC&amp;quot;, &amp;quot;Hiragino Sans GB&amp;quot;, &amp;quot;Microsoft YaHei&amp;quot;, &amp;quot;Helvetica Neue&amp;quot;, Helvetica, Arial, sans-serif, &amp;quot;Apple Color Emoji&amp;quot;, &amp;quot;Segoe UI Emoji&amp;quot;, &amp;quot;Segoe UI Symbol&amp;quot;; font-size: 14px; font-variant-ligatures: normal;&quot;&gt;webcast.grade.core&lt;br /&gt;&lt;/span&gt;&lt;span style=&quot;font-family: -apple-system, system-ui, &amp;quot;Segoe UI&amp;quot;, &amp;quot;PingFang SC&amp;quot;, &amp;quot;Hiragino Sans GB&amp;quot;, &amp;quot;Microsoft YaHei&amp;quot;, &amp;quot;Helvetica Neue&amp;quot;, Helvetica, Arial, sans-serif, &amp;quot;Apple Color Emoji&amp;quot;, &amp;quot;Segoe UI Emoji&amp;quot;, &amp;quot;Segoe UI Symbol&amp;quot;; font-size: 14px; font-variant-ligatures: normal;&quot;&gt;webcast.quiz.*&lt;/span&gt;&lt;/div&gt;" style="rounded=1;whiteSpace=wrap;html=1;" vertex="1" parent="1">
          <mxGeometry x="715" y="910" width="150" height="60" as="geometry" />
        </mxCell>
        <mxCell id="JAqNoWkvVQZvWXrGdv4A-21" style="edgeStyle=orthogonalEdgeStyle;rounded=0;orthogonalLoop=1;jettySize=auto;html=1;exitX=0.5;exitY=1;exitDx=0;exitDy=0;entryX=0.5;entryY=0;entryDx=0;entryDy=0;" edge="1" parent="1" source="JAqNoWkvVQZvWXrGdv4A-22" target="JAqNoWkvVQZvWXrGdv4A-29">
          <mxGeometry relative="1" as="geometry" />
        </mxCell>
        <mxCell id="JAqNoWkvVQZvWXrGdv4A-22" value="&lt;div style=&quot;text-align: left;&quot;&gt;平衡账户（红包、福袋）&lt;/div&gt;&lt;div style=&quot;text-align: left;&quot;&gt;&lt;span style=&quot;font-family: -apple-system, system-ui, &amp;quot;Segoe UI&amp;quot;, &amp;quot;PingFang SC&amp;quot;, &amp;quot;Hiragino Sans GB&amp;quot;, &amp;quot;Microsoft YaHei&amp;quot;, &amp;quot;Helvetica Neue&amp;quot;, Helvetica, Arial, sans-serif, &amp;quot;Apple Color Emoji&amp;quot;, &amp;quot;Segoe UI Emoji&amp;quot;, &amp;quot;Segoe UI Symbol&amp;quot;; font-size: 14px; font-variant-ligatures: normal;&quot;&gt;webcast.lottery.core&lt;/span&gt;&lt;br /&gt;&lt;/div&gt;&lt;div style=&quot;text-align: left;&quot;&gt;&lt;span style=&quot;font-family: -apple-system, system-ui, &amp;quot;Segoe UI&amp;quot;, &amp;quot;PingFang SC&amp;quot;, &amp;quot;Hiragino Sans GB&amp;quot;, &amp;quot;Microsoft YaHei&amp;quot;, &amp;quot;Helvetica Neue&amp;quot;, Helvetica, Arial, sans-serif, &amp;quot;Apple Color Emoji&amp;quot;, &amp;quot;Segoe UI Emoji&amp;quot;, &amp;quot;Segoe UI Symbol&amp;quot;; font-size: 14px; font-variant-ligatures: normal;&quot;&gt;webcast.luckymoney.*&lt;/span&gt;&lt;/div&gt;" style="rounded=1;whiteSpace=wrap;html=1;" vertex="1" parent="1">
          <mxGeometry x="880" y="910" width="160" height="60" as="geometry" />
        </mxCell>
        <mxCell id="JAqNoWkvVQZvWXrGdv4A-23" style="edgeStyle=orthogonalEdgeStyle;rounded=0;orthogonalLoop=1;jettySize=auto;html=1;exitX=0.5;exitY=1;exitDx=0;exitDy=0;entryX=0.5;entryY=0;entryDx=0;entryDy=0;" edge="1" parent="1" source="JAqNoWkvVQZvWXrGdv4A-24" target="JAqNoWkvVQZvWXrGdv4A-29">
          <mxGeometry relative="1" as="geometry" />
        </mxCell>
        <mxCell id="JAqNoWkvVQZvWXrGdv4A-24" value="&lt;div style&gt;&lt;span style=&quot;text-align: left;&quot;&gt;活动发奖&lt;/span&gt;&lt;/div&gt;&lt;div style&gt;&lt;span style=&quot;font-family: -apple-system, system-ui, &amp;quot;Segoe UI&amp;quot;, &amp;quot;PingFang SC&amp;quot;, &amp;quot;Hiragino Sans GB&amp;quot;, &amp;quot;Microsoft YaHei&amp;quot;, &amp;quot;Helvetica Neue&amp;quot;, Helvetica, Arial, sans-serif, &amp;quot;Apple Color Emoji&amp;quot;, &amp;quot;Segoe UI Emoji&amp;quot;, &amp;quot;Segoe UI Symbol&amp;quot;; font-size: 14px; font-variant-ligatures: normal; text-align: left;&quot;&gt;webcast.activity.*&lt;/span&gt;&lt;/div&gt;" style="rounded=1;whiteSpace=wrap;html=1;" vertex="1" parent="1">
          <mxGeometry x="1060" y="910" width="140" height="60" as="geometry" />
        </mxCell>
        <mxCell id="JAqNoWkvVQZvWXrGdv4A-25" style="edgeStyle=orthogonalEdgeStyle;rounded=0;orthogonalLoop=1;jettySize=auto;html=1;exitX=0.5;exitY=1;exitDx=0;exitDy=0;entryX=0.5;entryY=0;entryDx=0;entryDy=0;" edge="1" parent="1" source="JAqNoWkvVQZvWXrGdv4A-29" target="JAqNoWkvVQZvWXrGdv4A-6">
          <mxGeometry relative="1" as="geometry" />
        </mxCell>
        <mxCell id="JAqNoWkvVQZvWXrGdv4A-26" style="edgeStyle=orthogonalEdgeStyle;rounded=0;orthogonalLoop=1;jettySize=auto;html=1;exitX=0.5;exitY=1;exitDx=0;exitDy=0;entryX=0.5;entryY=0;entryDx=0;entryDy=0;" edge="1" parent="1" source="JAqNoWkvVQZvWXrGdv4A-29">
          <mxGeometry relative="1" as="geometry">
            <mxPoint x="792.4999999999995" y="1360" as="targetPoint" />
          </mxGeometry>
        </mxCell>
        <mxCell id="JAqNoWkvVQZvWXrGdv4A-27" style="edgeStyle=orthogonalEdgeStyle;rounded=0;orthogonalLoop=1;jettySize=auto;html=1;exitX=0.5;exitY=1;exitDx=0;exitDy=0;entryX=0.5;entryY=0;entryDx=0;entryDy=0;" edge="1" parent="1" source="JAqNoWkvVQZvWXrGdv4A-29">
          <mxGeometry relative="1" as="geometry">
            <mxPoint x="952.5" y="1360" as="targetPoint" />
          </mxGeometry>
        </mxCell>
        <mxCell id="JAqNoWkvVQZvWXrGdv4A-28" style="edgeStyle=orthogonalEdgeStyle;rounded=0;orthogonalLoop=1;jettySize=auto;html=1;exitX=0.5;exitY=1;exitDx=0;exitDy=0;entryX=0.5;entryY=0;entryDx=0;entryDy=0;dashed=1;" edge="1" parent="1" source="JAqNoWkvVQZvWXrGdv4A-29">
          <mxGeometry relative="1" as="geometry">
            <mxPoint x="1104.9999999999995" y="1360" as="targetPoint" />
          </mxGeometry>
        </mxCell>
        <mxCell id="JAqNoWkvVQZvWXrGdv4A-29" value="交易驱动服务&lt;br&gt;webcast.arsenal.core" style="rounded=1;fillColor=#487EC0;strokeWidth=2;fontColor=#FFFFFF;whiteSpace=wrap;html=1;" vertex="1" parent="1">
          <mxGeometry x="810" y="1180" width="130" height="50" as="geometry" />
        </mxCell>
        <mxCell id="JAqNoWkvVQZvWXrGdv4A-30" style="edgeStyle=orthogonalEdgeStyle;rounded=0;orthogonalLoop=1;jettySize=auto;html=1;exitX=0;exitY=0.5;exitDx=0;exitDy=0;entryX=1;entryY=0.5;entryDx=0;entryDy=0;" edge="1" parent="1" source="JAqNoWkvVQZvWXrGdv4A-34" target="JAqNoWkvVQZvWXrGdv4A-29">
          <mxGeometry relative="1" as="geometry" />
        </mxCell>
        <mxCell id="JAqNoWkvVQZvWXrGdv4A-31" style="edgeStyle=orthogonalEdgeStyle;rounded=0;orthogonalLoop=1;jettySize=auto;html=1;exitX=0.5;exitY=1;exitDx=0;exitDy=0;entryX=0.5;entryY=0;entryDx=0;entryDy=0;" edge="1" parent="1" source="JAqNoWkvVQZvWXrGdv4A-34">
          <mxGeometry relative="1" as="geometry">
            <Array as="points">
              <mxPoint x="1125" y="1260" />
              <mxPoint x="1290" y="1260" />
            </Array>
            <mxPoint x="1290" y="1360" as="targetPoint" />
          </mxGeometry>
        </mxCell>
        <mxCell id="JAqNoWkvVQZvWXrGdv4A-32" style="edgeStyle=orthogonalEdgeStyle;rounded=0;orthogonalLoop=1;jettySize=auto;html=1;exitX=1;exitY=0.5;exitDx=0;exitDy=0;entryX=0;entryY=0.5;entryDx=0;entryDy=0;" edge="1" parent="1" source="JAqNoWkvVQZvWXrGdv4A-34" target="JAqNoWkvVQZvWXrGdv4A-12">
          <mxGeometry relative="1" as="geometry">
            <Array as="points">
              <mxPoint x="1260" y="1205" />
              <mxPoint x="1260" y="1175" />
            </Array>
          </mxGeometry>
        </mxCell>
        <mxCell id="JAqNoWkvVQZvWXrGdv4A-33" style="edgeStyle=orthogonalEdgeStyle;rounded=0;orthogonalLoop=1;jettySize=auto;html=1;exitX=1;exitY=0.5;exitDx=0;exitDy=0;entryX=0;entryY=0.5;entryDx=0;entryDy=0;" edge="1" parent="1" source="JAqNoWkvVQZvWXrGdv4A-34" target="JAqNoWkvVQZvWXrGdv4A-73">
          <mxGeometry relative="1" as="geometry">
            <Array as="points">
              <mxPoint x="1260" y="1205" />
              <mxPoint x="1260" y="1225" />
            </Array>
          </mxGeometry>
        </mxCell>
        <mxCell id="JAqNoWkvVQZvWXrGdv4A-34" value="项目管理平台&lt;br&gt;webcast.arsenal.console" style="rounded=1;fillColor=#487EC0;strokeWidth=2;fontColor=#FFFFFF;whiteSpace=wrap;html=1;" vertex="1" parent="1">
          <mxGeometry x="1055" y="1180" width="140" height="50" as="geometry" />
        </mxCell>
        <mxCell id="JAqNoWkvVQZvWXrGdv4A-35" style="edgeStyle=none;rounded=0;orthogonalLoop=1;jettySize=auto;html=1;exitX=0.5;exitY=1;exitDx=0;exitDy=0;" edge="1" parent="1">
          <mxGeometry relative="1" as="geometry">
            <mxPoint x="792.4999999999995" y="1410" as="sourcePoint" />
            <mxPoint x="792.4999999999995" y="1410" as="targetPoint" />
          </mxGeometry>
        </mxCell>
        <mxCell id="JAqNoWkvVQZvWXrGdv4A-36" value="" style="edgeStyle=orthogonalEdgeStyle;rounded=0;orthogonalLoop=1;jettySize=auto;html=1;" edge="1" parent="1" source="JAqNoWkvVQZvWXrGdv4A-37" target="JAqNoWkvVQZvWXrGdv4A-39">
          <mxGeometry relative="1" as="geometry" />
        </mxCell>
        <mxCell id="JAqNoWkvVQZvWXrGdv4A-37" value="圈人SDK&lt;br&gt;webcast.crowd.sdk" style="rounded=1;whiteSpace=wrap;html=1;fillColor=#487EC0;strokeWidth=2;fontColor=#FFFFFF;" vertex="1" parent="1">
          <mxGeometry x="1755" y="1070" width="120" height="50" as="geometry" />
        </mxCell>
        <mxCell id="JAqNoWkvVQZvWXrGdv4A-38" style="edgeStyle=orthogonalEdgeStyle;rounded=0;orthogonalLoop=1;jettySize=auto;html=1;exitX=0.5;exitY=1;exitDx=0;exitDy=0;entryX=0.5;entryY=0;entryDx=0;entryDy=0;" edge="1" parent="1" source="JAqNoWkvVQZvWXrGdv4A-39" target="JAqNoWkvVQZvWXrGdv4A-5">
          <mxGeometry relative="1" as="geometry" />
        </mxCell>
        <mxCell id="JAqNoWkvVQZvWXrGdv4A-39" value="圈人核心服务&lt;br&gt;webcast.crowd.core" style="rounded=1;whiteSpace=wrap;html=1;fillColor=#487EC0;strokeWidth=2;fontColor=#FFFFFF;" vertex="1" parent="1">
          <mxGeometry x="1755" y="1180" width="120" height="50" as="geometry" />
        </mxCell>
        <mxCell id="JAqNoWkvVQZvWXrGdv4A-40" value="库存/元信息服务&lt;br&gt;webcast.property.base" style="rounded=1;fillColor=#487EC0;fontColor=#FFFFFF;whiteSpace=wrap;html=1;" vertex="1" parent="1">
          <mxGeometry x="730" y="1360" width="130" height="50" as="geometry" />
        </mxCell>
        <mxCell id="JAqNoWkvVQZvWXrGdv4A-41" value="ACL服务&lt;br&gt;webcast.security.watchdog" style="rounded=1;fillColor=#487EC0;fontColor=#FFFFFF;whiteSpace=wrap;html=1;" vertex="1" parent="1">
          <mxGeometry x="880" y="1360" width="150" height="50" as="geometry" />
        </mxCell>
        <mxCell id="JAqNoWkvVQZvWXrGdv4A-42" value="资源发放流水" style="rounded=1;fillColor=#487EC0;fontColor=#FFFFFF;whiteSpace=wrap;html=1;" vertex="1" parent="1">
          <mxGeometry x="1050" y="1360" width="100" height="50" as="geometry" />
        </mxCell>
        <mxCell id="JAqNoWkvVQZvWXrGdv4A-43" value="" style="edgeStyle=orthogonalEdgeStyle;rounded=0;orthogonalLoop=1;jettySize=auto;html=1;" edge="1" parent="1" source="JAqNoWkvVQZvWXrGdv4A-45" target="JAqNoWkvVQZvWXrGdv4A-49">
          <mxGeometry relative="1" as="geometry" />
        </mxCell>
        <mxCell id="JAqNoWkvVQZvWXrGdv4A-44" style="edgeStyle=orthogonalEdgeStyle;rounded=0;orthogonalLoop=1;jettySize=auto;html=1;exitX=0;exitY=0.5;exitDx=0;exitDy=0;entryX=1;entryY=0.5;entryDx=0;entryDy=0;" edge="1" parent="1" source="JAqNoWkvVQZvWXrGdv4A-45" target="JAqNoWkvVQZvWXrGdv4A-42">
          <mxGeometry relative="1" as="geometry" />
        </mxCell>
        <mxCell id="JAqNoWkvVQZvWXrGdv4A-45" value="报警服务&lt;br&gt;webcast.alarm.core&lt;br&gt;" style="rounded=1;fillColor=#487EC0;fontColor=#FFFFFF;whiteSpace=wrap;html=1;" vertex="1" parent="1">
          <mxGeometry x="1210" y="1360" width="110" height="50" as="geometry" />
        </mxCell>
        <mxCell id="JAqNoWkvVQZvWXrGdv4A-46" style="edgeStyle=orthogonalEdgeStyle;rounded=0;orthogonalLoop=1;jettySize=auto;html=1;exitX=0.5;exitY=0;exitDx=0;exitDy=0;entryX=0.25;entryY=1;entryDx=0;entryDy=0;" edge="1" parent="1" source="JAqNoWkvVQZvWXrGdv4A-48" target="JAqNoWkvVQZvWXrGdv4A-49">
          <mxGeometry relative="1" as="geometry">
            <Array as="points">
              <mxPoint x="1100" y="1440" />
              <mxPoint x="1405" y="1440" />
            </Array>
          </mxGeometry>
        </mxCell>
        <mxCell id="JAqNoWkvVQZvWXrGdv4A-47" style="edgeStyle=orthogonalEdgeStyle;rounded=0;orthogonalLoop=1;jettySize=auto;html=1;exitX=0.5;exitY=0;exitDx=0;exitDy=0;entryX=0.5;entryY=1;entryDx=0;entryDy=0;" edge="1" parent="1" source="JAqNoWkvVQZvWXrGdv4A-48" target="JAqNoWkvVQZvWXrGdv4A-42">
          <mxGeometry relative="1" as="geometry">
            <Array as="points">
              <mxPoint x="1100" y="1470" />
              <mxPoint x="1100" y="1470" />
            </Array>
            <mxPoint x="985" y="1500" as="sourcePoint" />
            <mxPoint x="960" y="1410" as="targetPoint" />
          </mxGeometry>
        </mxCell>
        <mxCell id="JAqNoWkvVQZvWXrGdv4A-48" value="风控服务&lt;br&gt;webcast.dm.riskcontrol&lt;br&gt;" style="rounded=1;fillColor=#487EC0;fontColor=#FFFFFF;whiteSpace=wrap;html=1;" vertex="1" parent="1">
          <mxGeometry x="1035" y="1500" width="130" height="50" as="geometry" />
        </mxCell>
        <mxCell id="JAqNoWkvVQZvWXrGdv4A-49" value="规则服务&lt;br&gt;webcast.rule.engine&lt;br&gt;" style="rounded=1;fillColor=#487EC0;fontColor=#FFFFFF;whiteSpace=wrap;html=1;" vertex="1" parent="1">
          <mxGeometry x="1375" y="1360" width="120" height="50" as="geometry" />
        </mxCell>
        <mxCell id="JAqNoWkvVQZvWXrGdv4A-50" style="edgeStyle=orthogonalEdgeStyle;rounded=0;orthogonalLoop=1;jettySize=auto;html=1;exitX=0.5;exitY=0;exitDx=0;exitDy=0;entryX=0.75;entryY=1;entryDx=0;entryDy=0;" edge="1" parent="1">
          <mxGeometry relative="1" as="geometry">
            <Array as="points">
              <mxPoint x="1280" y="1500" />
              <mxPoint x="1280" y="1460" />
              <mxPoint x="1438" y="1460" />
            </Array>
            <mxPoint x="1252.5" y="1500" as="sourcePoint" />
            <mxPoint x="1437.5" y="1410" as="targetPoint" />
          </mxGeometry>
        </mxCell>
        <mxCell id="JAqNoWkvVQZvWXrGdv4A-51" style="edgeStyle=orthogonalEdgeStyle;rounded=0;orthogonalLoop=1;jettySize=auto;html=1;exitX=0.5;exitY=0;exitDx=0;exitDy=0;entryX=0.75;entryY=1;entryDx=0;entryDy=0;" edge="1" parent="1" source="JAqNoWkvVQZvWXrGdv4A-52" target="JAqNoWkvVQZvWXrGdv4A-42">
          <mxGeometry relative="1" as="geometry">
            <Array as="points">
              <mxPoint x="1280" y="1460" />
              <mxPoint x="1125" y="1460" />
            </Array>
          </mxGeometry>
        </mxCell>
        <mxCell id="JAqNoWkvVQZvWXrGdv4A-52" value="对账服务&lt;br&gt;webcast.dm.accounting&lt;br&gt;" style="rounded=1;fillColor=#487EC0;fontColor=#FFFFFF;whiteSpace=wrap;html=1;" vertex="1" parent="1">
          <mxGeometry x="1180" y="1500" width="140" height="50" as="geometry" />
        </mxCell>
        <mxCell id="JAqNoWkvVQZvWXrGdv4A-53" value="&lt;font style=&quot;font-size: 18px;&quot;&gt;业务层&lt;/font&gt;" style="text;html=1;align=center;verticalAlign=middle;resizable=0;points=[];autosize=1;" vertex="1" parent="1">
          <mxGeometry x="40" y="920" width="40" height="20" as="geometry" />
        </mxCell>
        <mxCell id="JAqNoWkvVQZvWXrGdv4A-54" value="&lt;font style=&quot;font-size: 18px;&quot;&gt;核心服务层&lt;/font&gt;" style="text;html=1;align=center;verticalAlign=middle;resizable=0;points=[];autosize=1;" vertex="1" parent="1">
          <mxGeometry x="40" y="1185" width="40" height="20" as="geometry" />
        </mxCell>
        <mxCell id="JAqNoWkvVQZvWXrGdv4A-55" value="&lt;font style=&quot;font-size: 18px;&quot;&gt;基础服务层&lt;/font&gt;" style="text;html=1;align=center;verticalAlign=middle;resizable=0;points=[];autosize=1;" vertex="1" parent="1">
          <mxGeometry x="40" y="1365" width="40" height="20" as="geometry" />
        </mxCell>
        <mxCell id="JAqNoWkvVQZvWXrGdv4A-56" value="&lt;font style=&quot;font-size: 18px&quot;&gt;蓝色：资源系统自有服务&lt;br&gt;&lt;/font&gt;&lt;div&gt;&lt;span&gt;&lt;font style=&quot;font-size: 18px&quot;&gt;无色：上下游对接方&lt;/font&gt;&lt;/span&gt;&lt;/div&gt;" style="text;html=1;strokeColor=none;fillColor=none;align=left;verticalAlign=middle;whiteSpace=wrap;rounded=0;" vertex="1" parent="1">
          <mxGeometry x="20" y="1520" width="250" height="30" as="geometry" />
        </mxCell>
        <mxCell id="JAqNoWkvVQZvWXrGdv4A-57" style="edgeStyle=orthogonalEdgeStyle;rounded=0;orthogonalLoop=1;jettySize=auto;html=1;exitX=0.5;exitY=1;exitDx=0;exitDy=0;entryX=0.5;entryY=0;entryDx=0;entryDy=0;" edge="1" parent="1" source="JAqNoWkvVQZvWXrGdv4A-58" target="JAqNoWkvVQZvWXrGdv4A-62">
          <mxGeometry relative="1" as="geometry">
            <Array as="points">
              <mxPoint x="439" y="1130" />
              <mxPoint x="212" y="1130" />
            </Array>
          </mxGeometry>
        </mxCell>
        <mxCell id="JAqNoWkvVQZvWXrGdv4A-58" value="直播任务平台&lt;br&gt;webcast.ploy.task_manager" style="rounded=1;whiteSpace=wrap;html=1;fillColor=#487EC0;fontColor=#FFFFFF;" vertex="1" parent="1">
          <mxGeometry x="349" y="910" width="160" height="60" as="geometry" />
        </mxCell>
        <mxCell id="JAqNoWkvVQZvWXrGdv4A-59" style="edgeStyle=orthogonalEdgeStyle;rounded=0;orthogonalLoop=1;jettySize=auto;html=1;exitX=1;exitY=0.5;exitDx=0;exitDy=0;entryX=0;entryY=0.5;entryDx=0;entryDy=0;" edge="1" parent="1" source="JAqNoWkvVQZvWXrGdv4A-62" target="JAqNoWkvVQZvWXrGdv4A-64">
          <mxGeometry relative="1" as="geometry" />
        </mxCell>
        <mxCell id="JAqNoWkvVQZvWXrGdv4A-60" style="edgeStyle=orthogonalEdgeStyle;rounded=0;orthogonalLoop=1;jettySize=auto;html=1;exitX=0.5;exitY=1;exitDx=0;exitDy=0;entryX=0.5;entryY=0;entryDx=0;entryDy=0;" edge="1" parent="1" source="JAqNoWkvVQZvWXrGdv4A-62" target="JAqNoWkvVQZvWXrGdv4A-65">
          <mxGeometry relative="1" as="geometry" />
        </mxCell>
        <mxCell id="JAqNoWkvVQZvWXrGdv4A-61" style="edgeStyle=orthogonalEdgeStyle;rounded=0;orthogonalLoop=1;jettySize=auto;html=1;exitX=0.5;exitY=1;exitDx=0;exitDy=0;entryX=0.5;entryY=0;entryDx=0;entryDy=0;" edge="1" parent="1" source="JAqNoWkvVQZvWXrGdv4A-62" target="JAqNoWkvVQZvWXrGdv4A-68">
          <mxGeometry relative="1" as="geometry">
            <mxPoint x="416" y="1365" as="targetPoint" />
            <mxPoint x="190" y="1237.5" as="sourcePoint" />
          </mxGeometry>
        </mxCell>
        <mxCell id="JAqNoWkvVQZvWXrGdv4A-62" value="直播任务执行引擎&lt;br&gt;webcast.ploy.engine&lt;br&gt;" style="rounded=1;fillColor=#487EC0;strokeWidth=2;fontColor=#FFFFFF;whiteSpace=wrap;html=1;" vertex="1" parent="1">
          <mxGeometry x="129" y="1180" width="165" height="50" as="geometry" />
        </mxCell>
        <mxCell id="JAqNoWkvVQZvWXrGdv4A-63" style="edgeStyle=orthogonalEdgeStyle;rounded=0;orthogonalLoop=1;jettySize=auto;html=1;exitX=1;exitY=0.5;exitDx=0;exitDy=0;entryX=0;entryY=0.5;entryDx=0;entryDy=0;" edge="1" parent="1" source="JAqNoWkvVQZvWXrGdv4A-64" target="JAqNoWkvVQZvWXrGdv4A-29">
          <mxGeometry relative="1" as="geometry" />
        </mxCell>
        <mxCell id="JAqNoWkvVQZvWXrGdv4A-64" value="直播任务发奖&lt;br&gt;webcast.ploy.reward&lt;br&gt;" style="rounded=1;fillColor=#487EC0;strokeWidth=2;fontColor=#FFFFFF;whiteSpace=wrap;html=1;" vertex="1" parent="1">
          <mxGeometry x="387.5" y="1180" width="130" height="50" as="geometry" />
        </mxCell>
        <mxCell id="JAqNoWkvVQZvWXrGdv4A-65" value="任务元信息&lt;br&gt;webcast.ploy.data_access&lt;br&gt;" style="rounded=1;fillColor=#487EC0;strokeWidth=2;fontColor=#FFFFFF;whiteSpace=wrap;html=1;" vertex="1" parent="1">
          <mxGeometry x="136.5" y="1360" width="150" height="50" as="geometry" />
        </mxCell>
        <mxCell id="JAqNoWkvVQZvWXrGdv4A-66" value="" style="edgeStyle=orthogonalEdgeStyle;rounded=0;orthogonalLoop=1;jettySize=auto;html=1;" edge="1" parent="1" source="JAqNoWkvVQZvWXrGdv4A-67" target="JAqNoWkvVQZvWXrGdv4A-62">
          <mxGeometry relative="1" as="geometry" />
        </mxCell>
        <mxCell id="JAqNoWkvVQZvWXrGdv4A-67" value="直播任务触发&lt;br&gt;webcast.ploy.event&lt;br&gt;" style="rounded=1;fillColor=#487EC0;strokeWidth=2;fontColor=#FFFFFF;whiteSpace=wrap;html=1;" vertex="1" parent="1">
          <mxGeometry x="149" y="1070" width="125" height="50" as="geometry" />
        </mxCell>
        <mxCell id="JAqNoWkvVQZvWXrGdv4A-68" value="用户任务元信息&lt;br&gt;ies.dm.task_store&lt;br&gt;" style="rounded=1;fillColor=#487EC0;strokeWidth=2;fontColor=#FFFFFF;whiteSpace=wrap;html=1;" vertex="1" parent="1">
          <mxGeometry x="329" y="1360" width="165" height="50" as="geometry" />
        </mxCell>
        <mxCell id="JAqNoWkvVQZvWXrGdv4A-69" value="&lt;font style=&quot;font-size: 18px&quot;&gt;策略引擎&lt;br&gt;&lt;/font&gt;" style="text;html=1;strokeColor=none;fillColor=none;align=center;verticalAlign=middle;whiteSpace=wrap;rounded=0;dashed=1;" vertex="1" parent="1">
          <mxGeometry x="150" y="915" width="110" height="65" as="geometry" />
        </mxCell>
        <mxCell id="JAqNoWkvVQZvWXrGdv4A-70" value="&lt;font style=&quot;font-size: 18px;&quot;&gt;资管体系&lt;/font&gt;" style="text;html=1;strokeColor=none;fillColor=none;align=center;verticalAlign=middle;whiteSpace=wrap;rounded=0;dashed=1;" vertex="1" parent="1">
          <mxGeometry x="650" y="1470" width="110" height="65" as="geometry" />
        </mxCell>
        <mxCell id="JAqNoWkvVQZvWXrGdv4A-71" value="&lt;font style=&quot;font-size: 18px;&quot;&gt;资源位&lt;/font&gt;" style="text;html=1;strokeColor=none;fillColor=none;align=center;verticalAlign=middle;whiteSpace=wrap;rounded=0;dashed=1;" vertex="1" parent="1">
          <mxGeometry x="1250" y="980" width="110" height="65" as="geometry" />
        </mxCell>
        <mxCell id="JAqNoWkvVQZvWXrGdv4A-72" value="&lt;font style=&quot;font-size: 18px;&quot;&gt;人群圈选&lt;/font&gt;" style="text;html=1;strokeColor=none;fillColor=none;align=center;verticalAlign=middle;whiteSpace=wrap;rounded=0;dashed=1;" vertex="1" parent="1">
          <mxGeometry x="1840" y="1240" width="110" height="65" as="geometry" />
        </mxCell>
        <mxCell id="JAqNoWkvVQZvWXrGdv4A-73" value="资源位核心服务&lt;br&gt;webcast.spot.base" style="rounded=1;whiteSpace=wrap;html=1;fillColor=#487EC0;strokeWidth=2;fontColor=#FFFFFF;" vertex="1" parent="1">
          <mxGeometry x="1461" y="1200" width="130" height="50" as="geometry" />
        </mxCell>
        <mxCell id="JAqNoWkvVQZvWXrGdv4A-74" style="edgeStyle=orthogonalEdgeStyle;rounded=0;orthogonalLoop=1;jettySize=auto;html=1;exitX=0.5;exitY=1;exitDx=0;exitDy=0;entryX=0.5;entryY=0;entryDx=0;entryDy=0;" edge="1" parent="1" source="JAqNoWkvVQZvWXrGdv4A-76" target="JAqNoWkvVQZvWXrGdv4A-73">
          <mxGeometry relative="1" as="geometry" />
        </mxCell>
        <mxCell id="JAqNoWkvVQZvWXrGdv4A-75" style="edgeStyle=orthogonalEdgeStyle;rounded=0;orthogonalLoop=1;jettySize=auto;html=1;exitX=1;exitY=0.5;exitDx=0;exitDy=0;" edge="1" parent="1" source="JAqNoWkvVQZvWXrGdv4A-76" target="JAqNoWkvVQZvWXrGdv4A-37">
          <mxGeometry relative="1" as="geometry" />
        </mxCell>
        <mxCell id="JAqNoWkvVQZvWXrGdv4A-76" value="资源位过滤服务&lt;br&gt;webcast.spot.filter" style="rounded=1;whiteSpace=wrap;html=1;fillColor=#487EC0;strokeWidth=2;fontColor=#FFFFFF;" vertex="1" parent="1">
          <mxGeometry x="1460" y="1070" width="130" height="50" as="geometry" />
        </mxCell>
      </root>
    </mxGraphModel>
  </diagram>
</mxfile>
